# Blender 4.4.3
# www.blender.org
mtllib Yacheika.mtl
o Yacheika.Merged
v 37.000000 1.000000 35.000000
v 37.000000 -1.000000 -37.000000
v 37.000000 -1.000000 35.000000
v 37.000000 1.000000 -37.000000
v -39.000000 1.000000 39.000000
v -39.000000 -1.000000 -41.000000
v -39.000000 -1.000000 39.000000
v -39.000000 1.000000 -41.000000
v -35.000000 1.000000 35.000000
v -35.000000 -1.000000 -37.000000
v -35.000000 -1.000000 35.000000
v -35.000000 1.000000 -37.000000
v 41.000000 1.000000 39.000000
v 41.000000 -1.000000 -41.000000
v 41.000000 -1.000000 39.000000
v 41.000000 1.000000 -41.000000
vn -0.3015 0.9045 -0.3015
vn -0.3015 -0.9045 0.3015
vn -0.3015 -0.9045 -0.3015
vn -0.3015 0.9045 0.3015
vn -0.5773 0.5774 0.5773
vn -0.5773 -0.5774 -0.5773
vn -0.5773 -0.5774 0.5773
vn -0.5773 0.5774 -0.5773
vn 0.3015 0.9045 -0.3015
vn 0.3015 -0.9045 0.3015
vn 0.3015 -0.9045 -0.3015
vn 0.3015 0.9045 0.3015
vn 0.5773 0.5774 0.5773
vn 0.5773 -0.5774 -0.5773
vn 0.5773 -0.5774 0.5773
vn 0.5773 0.5774 -0.5773
vt 0.656228 0.343772
vt 0.656228 0.374956
vt 0.625044 0.343772
vt 0.187522 0.328154
vt 0.218739 0.953067
vt 0.218739 0.328154
vt 0.187511 0.328183
vt 0.187511 0.953096
vt 0.218728 0.953096
vt 0.749989 0.953067
vt 0.718772 0.328154
vt 0.749989 0.328154
vt 0.718761 0.953096
vt 0.718761 0.328183
vt 0.749978 0.953096
vt 0.093721 0.375024
vt 0.031264 0.343778
vt 0.031264 0.968699
vt 0.656234 0.906223
vt 0.656234 0.343808
vt 0.593783 0.937469
vt 0.375015 0.953074
vt 0.375015 0.328152
vt 0.437470 0.359398
vt 0.187485 0.953074
vt 0.125030 0.359398
vt 0.187485 0.328152
vt 0.499983 0.921849
vt 0.437534 0.953094
vt 0.499983 0.359432
vt 0.500017 0.890599
vt 0.500017 0.328182
vt 0.562466 0.921844
vt 0.281261 0.968691
vt 0.312478 0.343779
vt 0.281261 0.343779
vt 0.281272 0.968721
vt 0.312489 0.968721
vt 0.312489 0.343809
s 1
usemtl lambert0.005
f 1/1/1 2/2/2 3/3/3
f 1/1/1 4/2/4 2/3/2
f 5/4/5 6/5/6 7/6/7
f 5/7/5 8/8/8 6/9/6
f 10/2/10 9/1/9 11/3/11
f 12/2/12 9/1/9 10/3/10
f 14/10/14 13/11/13 15/12/15
f 16/13/16 13/14/13 14/15/14
f 3/16/3 15/17/15 7/18/7
f 11/19/11 3/20/3 7/21/7
f 14/22/14 15/23/15 3/24/3
f 6/25/6 11/26/11 7/27/7
f 2/28/2 14/29/14 3/30/3
f 10/31/10 11/32/11 6/33/6
f 14/17/14 2/16/2 6/18/6
f 2/20/2 10/19/10 6/21/6
f 13/17/13 1/16/1 5/18/5
f 1/20/1 9/19/9 5/21/5
f 13/23/13 16/22/16 1/24/1
f 9/26/9 8/25/8 5/27/5
f 16/29/16 4/28/4 1/30/1
f 9/32/9 12/31/12 8/33/8
f 4/16/4 16/17/16 8/18/8
f 12/19/12 4/20/4 8/21/8
f 2/1/2 12/2/12 10/3/10
f 2/1/2 4/2/4 12/3/12
f 15/34/15 5/35/5 7/36/7
f 15/37/15 13/38/13 5/39/5
f 9/2/9 3/1/3 11/3/11
f 1/2/1 3/1/3 9/3/9
f 8/35/8 14/34/14 6/36/6
f 16/38/16 14/37/14 8/39/8
